HIERARCHY
ROOT hip
{
  OFFSET 0 0 0
  CHANNELS 6 Xposition Yposition Zposition Zrotation Yrotation Xrotation
  JOINT abdomen
  {
    OFFSET 0 20.6881 -0.73152
    CHANNELS 3 Zrotation Xrotation Yrotation
    JOINT chest
    {
      OFFSET 0 11.7043 -0.48768
      CHANNELS 3 Zrotation Xrotation Yrotation
      JOINT neck
      {
        OFFSET 0 22.1894 -2.19456
        CHANNELS 3 Zrotation Xrotation Yrotation
        JOINT head
        {
          OFFSET -0.24384 7.07133 1.2192
          CHANNELS 3 Zrotation Xrotation Yrotation
          JOINT leftEye
          {
            OFFSET 4.14528 8.04674 8.04672
            CHANNELS 3 Zrotation Xrotation Yrotation
            End Site
            {
              OFFSET 1 0 0
            }
          }
          JOINT rightEye
          {
            OFFSET -3.6576 8.04674 8.04672
            CHANNELS 3 Zrotation Xrotation Yrotation
            End Site
            {
              OFFSET 1 0 0
            }
          }
        }
      }
      JOINT rCollar
      {
        OFFSET -2.68224 19.2634 -4.8768
        CHANNELS 3 Zrotation Xrotation Yrotation
        JOINT rShldr
        {
          OFFSET -8.77824 -1.95073 1.46304
          CHANNELS 3 Zrotation Xrotation Yrotation
          JOINT rForeArm
          {
            OFFSET -28.1742 -1.7115 0.48768
            CHANNELS 3 Zrotation Xrotation Yrotation
            JOINT rHand
            {
              OFFSET -22.5879 0.773209 7.07136
              CHANNELS 3 Zrotation Xrotation Yrotation
              JOINT rThumb1
              {
                OFFSET -1.2192 -0.487915 3.41376
                CHANNELS 3 Zrotation Xrotation Yrotation
                JOINT rThumb2
                {
                  OFFSET -3.37035 -0.52449 3.41376
                  CHANNELS 3 Zrotation Xrotation Yrotation
                  End Site
                  {
                    OFFSET -1.78271 -1.18214 1.43049
                  }
                }
              }
              JOINT rIndex1
              {
                OFFSET -7.75947 0.938293 5.60832
                CHANNELS 3 Zrotation Xrotation Yrotation
                JOINT rIndex2
                {
                  OFFSET -2.54057 -0.884171 1.56538
                  CHANNELS 3 Zrotation Xrotation Yrotation
                  End Site
                  {
                    OFFSET -1.62519 -0.234802 1.16502
                  }
                }
              }
              JOINT rMid1
              {
                OFFSET -8.24714 1.18213 3.41376
                CHANNELS 3 Zrotation Xrotation Yrotation
                JOINT rMid2
                {
                  OFFSET -3.10165 -0.590103 1.0647
                  CHANNELS 3 Zrotation Xrotation Yrotation
                  End Site
                  {
                    OFFSET -2.48547 -0.328903 0.83742
                  }
                }
              }
              JOINT rRing1
              {
                OFFSET -8.82822 0.546677 1.51678
                CHANNELS 3 Zrotation Xrotation Yrotation
                JOINT rRing2
                {
                  OFFSET -2.60934 -0.819778 -0.0198488
                  CHANNELS 3 Zrotation Xrotation Yrotation
                  End Site
                  {
                    OFFSET -2.33842 -0.294052 0.168128
                  }
                }
              }
              JOINT rPinky1
              {
                OFFSET -8.27202 -0.0477905 -0.4584
                CHANNELS 3 Zrotation Xrotation Yrotation
                JOINT rPinky2
                {
                  OFFSET -1.82734 -0.647385 -0.700984
                  CHANNELS 3 Zrotation Xrotation Yrotation
                  End Site
                  {
                    OFFSET -1.69225 -0.51767 -0.607171
                  }
                }
              }
            }
          }
        }
      }
      JOINT lCollar
      {
        OFFSET 2.68224 19.2634 -4.8768
        CHANNELS 3 Zrotation Xrotation Yrotation
        JOINT lShldr
        {
          OFFSET 8.77824 -1.95073 1.46304
          CHANNELS 3 Zrotation Xrotation Yrotation
          JOINT lForeArm
          {
            OFFSET 28.1742 -1.7115 0.48768
            CHANNELS 3 Zrotation Xrotation Yrotation
            JOINT lHand
            {
              OFFSET 22.5879 0.773209 7.07136
              CHANNELS 3 Zrotation Xrotation Yrotation
              JOINT lThumb1
              {
                OFFSET 1.2192 -0.487915 3.41376
                CHANNELS 3 Zrotation Xrotation Yrotation
                JOINT lThumb2
                {
                  OFFSET 3.37035 -0.52449 3.41376
                  CHANNELS 3 Zrotation Xrotation Yrotation
                  End Site
                  {
                    OFFSET 1.78271 -1.18214 1.43049
                  }
                }
              }
              JOINT lIndex1
              {
                OFFSET 7.75947 0.938293 5.60832
                CHANNELS 3 Zrotation Xrotation Yrotation
                JOINT lIndex2
                {
                  OFFSET 2.54057 -0.884171 1.56538
                  CHANNELS 3 Zrotation Xrotation Yrotation
                  End Site
                  {
                    OFFSET 1.62519 -0.234802 1.16502
                  }
                }
              }
              JOINT lMid1
              {
                OFFSET 8.24714 1.18213 3.41376
                CHANNELS 3 Zrotation Xrotation Yrotation
                JOINT lMid2
                {
                  OFFSET 3.10165 -0.590103 1.0647
                  CHANNELS 3 Zrotation Xrotation Yrotation
                  End Site
                  {
                    OFFSET 2.48547 -0.328903 0.83742
                  }
                }
              }
              JOINT lRing1
              {
                OFFSET 8.82822 0.546677 1.51678
                CHANNELS 3 Zrotation Xrotation Yrotation
                JOINT lRing2
                {
                  OFFSET 2.60934 -0.819778 -0.0198488
                  CHANNELS 3 Zrotation Xrotation Yrotation
                  End Site
                  {
                    OFFSET 2.33842 -0.294052 0.168128
                  }
                }
              }
              JOINT lPinky1
              {
                OFFSET 8.27202 -0.0477905 -0.4584
                CHANNELS 3 Zrotation Xrotation Yrotation
                JOINT lPinky2
                {
                  OFFSET 1.82734 -0.647385 -0.700984
                  CHANNELS 3 Zrotation Xrotation Yrotation
                  End Site
                  {
                    OFFSET 1.69225 -0.51767 -0.607171
                  }
                }
              }
            }
          }
        }
      }
    }
  }
  JOINT rButtock
  {
    OFFSET -8.77824 4.35084 1.2192
    CHANNELS 3 Zrotation Xrotation Yrotation
    JOINT rThigh
    {
      OFFSET 0 -1.70687 -2.19456
      CHANNELS 3 Zrotation Xrotation Yrotation
      JOINT rShin
      {
        OFFSET 0 -36.8199 0.73152
        CHANNELS 3 Zrotation Xrotation Yrotation
        JOINT rFoot
        {
          OFFSET 0.73152 -45.1104 -5.12064
          CHANNELS 3 Zrotation Xrotation Yrotation
          End Site
          {
            OFFSET -1.1221 -3.69964 12.103
          }
        }
      }
    }
  }
  JOINT lButtock
  {
    OFFSET 8.77824 4.35084 1.2192
    CHANNELS 3 Zrotation Xrotation Yrotation
    JOINT lThigh
    {
      OFFSET 0 -1.70687 -2.19456
      CHANNELS 3 Zrotation Xrotation Yrotation
      JOINT lShin
      {
        OFFSET 0 -36.8199 0.73152
        CHANNELS 3 Zrotation Xrotation Yrotation
        JOINT lFoot
        {
          OFFSET -0.73152 -45.1104 -5.12064
          CHANNELS 3 Zrotation Xrotation Yrotation
          End Site
          {
            OFFSET 1.1221 -3.69964 12.103
          }
        }
      }
    }
  }
}
MOTION
Frames:	7
Frame Time:	0.00833333
8.27656 80.9033 19.1548 -8.9872 -30.0203 23.2507 -7.77068 37.6032 -3.44125 -1.83931 -10.4083 -1.56649 9.07778 -1.51781 8.60954 -10.8515 -5.81345 13.5768 -0.0 0.0 0.0 -0.0 0.0 0.0 -2.8307e-13 1.90833e-14 3.19695e-13 62.244 68.4547 12.8398 -28.3649 -37.5928 79.7069 -0.00102805 0.915502 0.128676 -1.78457e-09 1.11629e-09 3.47191e-09 -3.09539e-09 1.92684e-09 6.01645e-09 -1.78456e-09 1.11629e-09 3.4719e-09 7.73091 5.47488 0.417314 -1.78457e-09 1.11629e-09 3.47191e-09 2.90554 0.965183 0.102902 -1.78457e-09 1.11629e-09 3.47191e-09 10.2786 0.731801 0.0259123 -1.78458e-09 1.11629e-09 3.47192e-09 2.22167 -0.733487 -0.20892 -2.83038e-13 1.90833e-14 3.19546e-13 -59.6905 10.706 -44.0655 26.6218 -25.1482 -59.5198 32.9498 -77.7399 40.2966 -9.32768e-10 -2.7098e-09 -2.14541e-10 -1.57136e-09 -4.45938e-09 -4.37741e-10 -9.32764e-10 -2.70978e-09 -2.14519e-10 -7.73091 5.47488 -0.417314 -9.32763e-10 -2.70979e-09 -2.14544e-10 -2.90554 0.965183 -0.102902 -9.32773e-10 -2.70979e-09 -2.1455e-10 -10.2786 0.731801 -0.0259123 -9.3277e-10 -2.70979e-09 -2.14557e-10 -2.22167 -0.733487 0.20892 -2.03217e-16 0.0 -3.88251e-19 -7.33747 -31.7494 17.8694 0.0202593 2.44735 -0.0961861 1.13014 -1.44154 -17.2476 2.03217e-16 0.0 3.88251e-19 10.044 -36.0139 18.8609 -0.526298 33.8181 -4.39407 -4.69456 -16.3857 19.4322
8.1969 80.8878 19.1097 -9.3459 -30.2054 23.3686 -7.77921 37.5173 -3.36368 -1.83542 -10.2844 -1.54203 8.91076 -1.56968 8.56817 -10.5756 -6.12865 13.537 -0.0 0.0 0.0 -0.0 0.0 0.0 -1.86737e-13 -1.44111e-14 1.79633e-13 61.8642 68.3438 13.2791 -28.3427 -37.554 79.7475 -0.00174766 0.95712 0.13455 -1.28133e-09 1.155e-09 2.34117e-09 -2.22183e-09 1.99574e-09 4.05647e-09 -1.28132e-09 1.155e-09 2.34117e-09 7.73091 5.47488 0.417314 -1.28133e-09 1.15501e-09 2.34117e-09 2.90554 0.965183 0.102902 -1.28132e-09 1.15501e-09 2.34117e-09 10.2786 0.731801 0.0259123 -1.28133e-09 1.15501e-09 2.34118e-09 2.22167 -0.733487 -0.20892 -1.86758e-13 -1.44129e-14 1.79438e-13 -59.6978 10.6702 -44.217 26.6307 -25.1909 -59.6874 32.3043 -77.5727 39.6354 -6.11705e-10 -1.82446e-09 -4.87446e-10 -1.00599e-09 -2.90833e-09 -8.84922e-10 -6.11703e-10 -1.82445e-09 -4.87428e-10 -7.73091 5.47488 -0.417314 -6.11701e-10 -1.82445e-09 -4.8745e-10 -2.90554 0.965183 -0.102902 -6.1171e-10 -1.82445e-09 -4.87454e-10 -10.2786 0.731801 -0.0259123 -6.11706e-10 -1.82446e-09 -4.87461e-10 -2.22167 -0.733487 0.20892 -2.03217e-16 0.0 -3.88251e-19 -7.2155 -31.882 17.8119 0.0203923 2.39249 -0.0949712 1.15537 -1.2585 -17.0452 2.03217e-16 0.0 3.88251e-19 10.2289 -36.1517 18.9949 -0.530364 33.9522 -4.42128 -4.71662 -16.4624 19.484
8.08767 80.8791 19.0329 -9.7435 -30.7946 23.568 -8.00161 37.3384 -2.95708 -1.8516 -10.1313 -1.4479 8.65747 -1.52403 8.44657 -10.0185 -6.69654 13.3778 -0.0 0.0 0.0 -0.0 0.0 0.0 -7.26968e-14 -5.96375e-15 6.27445e-14 62.7603 68.3231 12.3684 -28.3132 -38.1093 80.633 -0.0028282 1.36695 0.192166 -4.97613e-10 1.04298e-09 5.99224e-10 -8.62999e-10 1.80561e-09 1.03841e-09 -4.97608e-10 1.04298e-09 5.99218e-10 7.73091 5.47488 0.417314 -4.97616e-10 1.04299e-09 5.99223e-10 2.90554 0.965183 0.102902 -4.97609e-10 1.04299e-09 5.99228e-10 10.2786 0.731801 0.0259123 -4.97621e-10 1.04299e-09 5.99237e-10 2.22167 -0.733487 -0.20892 -7.27966e-14 -5.96379e-15 6.24867e-14 -59.5488 11.1066 -44.2595 26.8834 -25.961 -60.8062 29.101 -76.6635 36.3503 -2.17292e-10 -6.53163e-10 -5.87518e-10 -3.27787e-10 -9.32884e-10 -1.02807e-09 -2.17295e-10 -6.53153e-10 -5.87507e-10 -7.73091 5.47488 -0.417314 -2.17291e-10 -6.5316e-10 -5.87523e-10 -2.90554 0.965183 -0.102902 -2.17299e-10 -6.5316e-10 -5.87525e-10 -10.2786 0.731801 -0.0259123 -2.17291e-10 -6.5316e-10 -5.87531e-10 -2.22167 -0.733487 0.20892 -2.03217e-16 0.0 -3.88251e-19 -6.98092 -32.1499 17.8332 0.0208614 2.29254 -0.0908751 1.19457 -0.943052 -16.7025 2.03217e-16 0.0 3.88251e-19 10.5853 -36.365 19.3568 -0.536937 34.172 -4.46822 -4.757 -16.5972 19.5893
8.24536 80.8021 18.9536 -9.627 -30.6316 23.884 -8.31559 37.1409 -2.43172 -1.88832 -10.0072 -1.33216 8.43986 -1.42372 8.3126 -9.49617 -7.23161 13.1909 -0.0 0.0 0.0 -0.0 0.0 0.0 2.92153e-14 6.26053e-15 -4.05292e-14 64.029 68.317 11.0345 -28.2531 -38.7955 81.7735 -0.00439792 1.7904 0.251717 2.90153e-10 9.69395e-10 -1.19625e-09 5.02664e-10 1.68152e-09 -2.07171e-09 2.90157e-10 9.69399e-10 -1.19625e-09 7.73091 5.47488 0.417314 2.90148e-10 9.69402e-10 -1.19625e-09 2.90554 0.965183 0.102902 2.90156e-10 9.69403e-10 -1.19624e-09 10.2786 0.731801 0.0259123 2.90143e-10 9.69411e-10 -1.19623e-09 2.22167 -0.733487 -0.20892 2.90417e-14 6.26222e-15 -4.08448e-14 -59.3652 11.7041 -44.2346 27.1531 -26.8566 -62.1895 25.8645 -75.5408 33.0164 1.53239e-10 4.60243e-10 -6.20717e-10 3.05331e-10 9.29153e-10 -1.05752e-09 1.53231e-10 4.60248e-10 -6.20713e-10 -7.73091 5.47488 -0.417314 1.53237e-10 4.60239e-10 -6.20724e-10 -2.90554 0.965183 -0.102902 1.53231e-10 4.6024e-10 -6.20723e-10 -10.2786 0.731801 -0.0259123 1.53243e-10 4.60244e-10 -6.20729e-10 -2.22167 -0.733487 0.20892 -2.03217e-16 0.0 -3.88251e-19 -6.73047 -32.4302 17.8949 0.0214866 2.19984 -0.0856049 1.23461 -0.60542 -16.3348 2.03217e-16 0.0 3.88251e-19 10.95 -36.5495 19.7559 -0.543246 34.387 -4.51682 -4.79805 -16.7434 19.7149
8.21938 80.7621 18.8507 -9.7299 -31.2337 24.1831 -8.60456 37.0019 -1.99444 -1.94516 -9.97048 -1.24269 8.3793 -1.31174 8.23407 -9.31861 -7.44696 13.0667 -0.0 0.0 0.0 -0.0 0.0 0.0 8.91647e-14 -1.59032e-14 -1.39746e-13 64.7649 68.2668 10.2076 -28.1987 -39.1943 82.4899 -0.00430394 1.87289 0.263312 8.05555e-10 1.1234e-09 -2.48756e-09 1.39672e-09 1.94855e-09 -4.30786e-09 8.05559e-10 1.12341e-09 -2.48756e-09 7.73091 5.47488 0.417314 8.05551e-10 1.12341e-09 -2.48756e-09 2.90554 0.965183 0.102902 8.05558e-10 1.12341e-09 -2.48755e-09 10.2786 0.731801 0.0259123 8.05545e-10 1.12342e-09 -2.48754e-09 2.22167 -0.733487 -0.20892 8.89522e-14 -1.59032e-14 -1.40093e-13 -59.2695 12.1506 -44.1761 27.2948 -27.3774 -63.074 24.1161 -74.8241 31.2075 4.02656e-10 1.1719e-09 -6.93005e-10 7.35463e-10 2.13999e-09 -1.16361e-09 4.02646e-10 1.1719e-09 -6.93005e-10 -7.73091 5.47488 -0.417314 4.02655e-10 1.17189e-09 -6.93011e-10 -2.90554 0.965183 -0.102902 4.02649e-10 1.17189e-09 -6.93009e-10 -10.2786 0.731801 -0.0259123 4.02662e-10 1.1719e-09 -6.93014e-10 -2.22167 -0.733487 0.20892 -2.03217e-16 0.0 -3.88251e-19 -6.56192 -32.6006 17.9571 0.0220618 2.16677 -0.0808657 1.26726 -0.357328 -16.0566 2.03217e-16 0.0 3.88251e-19 11.1532 -36.6044 19.9975 -0.547154 34.5064 -4.54853 -4.82282 -16.8549 19.827
8.24484 80.7381 18.8356 -9.5962 -31.4943 24.2308 -8.90767 36.9625 -1.64031 -2.02411 -10.0879 -1.18363 8.55163 -1.18215 8.22138 -9.63208 -7.19235 13.0016 -0.0 0.0 0.0 -0.0 0.0 0.0 6.25869e-14 -9.55864e-14 -2.26067e-13 64.8271 68.1156 10.1444 -28.1986 -39.171 82.4629 -0.00138654 1.43956 0.202339 1.01149e-09 1.83534e-09 -3.32938e-09 1.75476e-09 3.17622e-09 -5.76315e-09 1.0115e-09 1.83534e-09 -3.32939e-09 7.73091 5.47488 0.417314 1.01149e-09 1.83534e-09 -3.32938e-09 2.90554 0.965183 0.102902 1.0115e-09 1.83534e-09 -3.32938e-09 10.2786 0.731801 0.0259123 1.01148e-09 1.83535e-09 -3.32936e-09 2.22167 -0.733487 -0.20892 6.23907e-14 -9.55955e-14 -2.26408e-13 -59.345 12.288 -44.1541 27.2901 -27.3665 -63.0924 23.7591 -74.6644 30.8371 4.75252e-10 1.2527e-09 -8.02915e-10 8.68526e-10 2.33394e-09 -1.34928e-09 4.75243e-10 1.2527e-09 -8.02915e-10 -7.73091 5.47488 -0.417314 4.75255e-10 1.2527e-09 -8.02921e-10 -2.90554 0.965183 -0.102902 4.7525e-10 1.25271e-09 -8.02918e-10 -10.2786 0.731801 -0.0259123 4.75258e-10 1.2527e-09 -8.02924e-10 -2.22167 -0.733487 0.20892 -2.03217e-16 0.0 -3.88251e-19 -6.50093 -32.6485 18.0488 0.0226348 2.26128 -0.0761659 1.30163 -0.243646 -15.917 2.03217e-16 0.0 3.88251e-19 11.1182 -36.482 20.0216 -0.548718 34.4975 -4.56071 -4.82718 -16.9255 19.9341
8.23728 80.7333 18.8405 -9.4932 -31.7755 24.1788 -9.26564 36.9747 -1.27787 -2.12413 -10.3114 -1.13222 8.87743 -1.01786 8.24096 -10.2479 -6.64493 12.9575 -0.0 0.0 0.0 -0.0 0.0 0.0 -2.24035e-14 -2.08116e-13 -2.98193e-13 64.6705 67.91 10.3411 -28.2268 -38.9616 82.0916 0.00120754 0.706278 0.0992397 1.04319e-09 2.91102e-09 -3.95136e-09 1.8109e-09 5.03021e-09 -6.83589e-09 1.0432e-09 2.91102e-09 -3.95136e-09 7.73091 5.47488 0.417314 1.04319e-09 2.91102e-09 -3.95135e-09 2.90554 0.965183 0.102902 1.04319e-09 2.91102e-09 -3.95135e-09 10.2786 0.731801 0.0259123 1.04318e-09 2.91103e-09 -3.95134e-09 2.22167 -0.733487 -0.20892 -2.25481e-14 -2.08139e-13 -2.985e-13 -59.5098 12.308 -44.1289 27.221 -27.114 -62.6965 23.9638 -74.7526 31.0492 4.32809e-10 9.31853e-10 -9.03844e-10 8.06061e-10 1.87193e-09 -1.52896e-09 4.32803e-10 9.31853e-10 -9.03841e-10 -7.73091 5.47488 -0.417314 4.32819e-10 9.31865e-10 -9.03848e-10 -2.90554 0.965183 -0.102902 4.32815e-10 9.31866e-10 -9.03846e-10 -10.2786 0.731801 -0.0259123 4.32815e-10 9.31855e-10 -9.03852e-10 -2.22167 -0.733487 0.20892 -2.03217e-16 0.0 -3.88251e-19 -6.49567 -32.6325 18.1775 0.0232487 2.43745 -0.0709107 1.34044 -0.200396 -15.8484 2.03217e-16 0.0 3.88251e-19 10.945 -36.2437 19.9343 -0.549091 34.4114 -4.56232 -4.8202 -16.9779 20.0483
